<mxfile host="www.draw.io" modified="2020-01-12T08:00:22.977Z" agent="Mozilla/5.0 (Windows NT 6.2; Win64; x64) AppleWebKit/537.36 (KHTML, like Gecko) Chrome/79.0.3945.117 Safari/537.36" etag="ivTADq1Lije_EiUYXnzH" version="12.5.1" type="github">
  <diagram name="Page-1" id="13e1069c-82ec-6db2-03f1-153e76fe0fe0">
    <mxGraphModel dx="773" dy="427" grid="1" gridSize="10" guides="1" tooltips="1" connect="1" arrows="1" fold="1" page="1" pageScale="1" pageWidth="1100" pageHeight="850" background="#ffffff" math="0" shadow="0">
      <root>
        <mxCell id="0"/>
        <mxCell id="1" parent="0"/>
        <mxCell id="7baba1c4bc27f4b0-2" value=":服务器" style="shape=umlLifeline;perimeter=lifelinePerimeter;whiteSpace=wrap;html=1;container=1;collapsible=0;recursiveResize=0;outlineConnect=0;rounded=1;shadow=0;comic=0;labelBackgroundColor=none;strokeWidth=1;fontFamily=Verdana;fontSize=12;align=center;fillColor=#ffe6cc;strokeColor=#d79b00;" parent="1" vertex="1">
          <mxGeometry x="390" y="80" width="100" height="550" as="geometry"/>
        </mxCell>
        <mxCell id="7baba1c4bc27f4b0-10" value="" style="html=1;points=[];perimeter=orthogonalPerimeter;rounded=0;shadow=0;comic=0;labelBackgroundColor=none;strokeWidth=1;fontFamily=Verdana;fontSize=12;align=center;fillColor=#dae8fc;strokeColor=#6c8ebf;" parent="7baba1c4bc27f4b0-2" vertex="1">
          <mxGeometry x="45" y="50" width="10" height="90" as="geometry"/>
        </mxCell>
        <mxCell id="leQRQor99E0ZTcQCe0MW-17" value="" style="html=1;points=[];perimeter=orthogonalPerimeter;rounded=0;shadow=0;comic=0;labelBackgroundColor=none;strokeWidth=1;fontFamily=Verdana;fontSize=12;align=center;fillColor=#dae8fc;strokeColor=#6c8ebf;" parent="7baba1c4bc27f4b0-2" vertex="1">
          <mxGeometry x="45" y="330" width="10" height="220" as="geometry"/>
        </mxCell>
        <mxCell id="7baba1c4bc27f4b0-3" value=":CA(公证机构)" style="shape=umlLifeline;perimeter=lifelinePerimeter;whiteSpace=wrap;html=1;container=1;collapsible=0;recursiveResize=0;outlineConnect=0;rounded=1;shadow=0;comic=0;labelBackgroundColor=none;strokeWidth=1;fontFamily=Verdana;fontSize=12;align=center;fillColor=#ffe6cc;strokeColor=#d79b00;" parent="1" vertex="1">
          <mxGeometry x="620" y="80" width="100" height="440" as="geometry"/>
        </mxCell>
        <mxCell id="7baba1c4bc27f4b0-13" value="" style="html=1;points=[];perimeter=orthogonalPerimeter;rounded=0;shadow=0;comic=0;labelBackgroundColor=none;strokeWidth=1;fontFamily=Verdana;fontSize=12;align=center;fillColor=#dae8fc;strokeColor=#6c8ebf;" parent="7baba1c4bc27f4b0-3" vertex="1">
          <mxGeometry x="45" y="50" width="10" height="160" as="geometry"/>
        </mxCell>
        <mxCell id="7baba1c4bc27f4b0-8" value=":浏览器" style="shape=umlLifeline;perimeter=lifelinePerimeter;whiteSpace=wrap;html=1;container=1;collapsible=0;recursiveResize=0;outlineConnect=0;rounded=1;shadow=0;comic=0;labelBackgroundColor=none;strokeWidth=1;fontFamily=Verdana;fontSize=12;align=center;fillColor=#ffe6cc;strokeColor=#d79b00;" parent="1" vertex="1">
          <mxGeometry x="100" y="80" width="100" height="560" as="geometry"/>
        </mxCell>
        <mxCell id="7baba1c4bc27f4b0-9" value="" style="html=1;points=[];perimeter=orthogonalPerimeter;rounded=0;shadow=0;comic=0;labelBackgroundColor=none;strokeWidth=1;fontFamily=Verdana;fontSize=12;align=center;fillColor=#dae8fc;strokeColor=#6c8ebf;" parent="7baba1c4bc27f4b0-8" vertex="1">
          <mxGeometry x="45" y="70" width="10" height="490" as="geometry"/>
        </mxCell>
        <mxCell id="_tAtlndqi4DHkHifaJOw-1" value="" style="endArrow=classic;html=1;exitX=1.067;exitY=0.039;exitDx=0;exitDy=0;exitPerimeter=0;" parent="1" source="7baba1c4bc27f4b0-9" edge="1">
          <mxGeometry width="50" height="50" relative="1" as="geometry">
            <mxPoint x="160" y="210" as="sourcePoint"/>
            <mxPoint x="434" y="169" as="targetPoint"/>
            <Array as="points">
              <mxPoint x="420" y="169"/>
            </Array>
          </mxGeometry>
        </mxCell>
        <mxCell id="_tAtlndqi4DHkHifaJOw-2" value="2.请求数字证书" style="text;html=1;strokeColor=none;fillColor=none;align=center;verticalAlign=middle;whiteSpace=wrap;rounded=0;" parent="1" vertex="1">
          <mxGeometry x="250" y="140" width="100" height="20" as="geometry"/>
        </mxCell>
        <mxCell id="_tAtlndqi4DHkHifaJOw-5" value="3.下发证书(服务器信息+服务器公钥+数字签名)" style="html=1;verticalAlign=bottom;endArrow=open;dashed=1;endSize=8;labelBackgroundColor=none;fontFamily=Verdana;fontSize=12;edgeStyle=elbowEdgeStyle;elbow=vertical;" parent="1" edge="1">
          <mxGeometry y="-10" relative="1" as="geometry">
            <mxPoint x="160" y="210" as="targetPoint"/>
            <Array as="points"/>
            <mxPoint x="430" y="210" as="sourcePoint"/>
            <mxPoint as="offset"/>
          </mxGeometry>
        </mxCell>
        <mxCell id="_tAtlndqi4DHkHifaJOw-7" value="" style="endArrow=classic;html=1;exitX=0.933;exitY=0.239;exitDx=0;exitDy=0;exitPerimeter=0;" parent="1" target="leQRQor99E0ZTcQCe0MW-17" edge="1">
          <mxGeometry width="50" height="50" relative="1" as="geometry">
            <mxPoint x="150" y="550.16" as="sourcePoint"/>
            <mxPoint x="275.66999999999996" y="550" as="targetPoint"/>
          </mxGeometry>
        </mxCell>
        <mxCell id="leQRQor99E0ZTcQCe0MW-3" value="5.使用CA公钥对数字签名解密得到数字摘要" style="html=1;verticalAlign=bottom;endArrow=block;labelBackgroundColor=none;fontFamily=Verdana;fontSize=12;elbow=vertical;edgeStyle=orthogonalEdgeStyle;curved=1;entryX=1;entryY=0.286;entryPerimeter=0;exitX=1.038;exitY=0.345;exitPerimeter=0;" parent="1" edge="1">
          <mxGeometry x="-0.2308" y="-91" relative="1" as="geometry">
            <mxPoint x="150" y="250" as="sourcePoint"/>
            <mxPoint x="155" y="288" as="targetPoint"/>
            <Array as="points">
              <mxPoint x="205" y="250"/>
              <mxPoint x="205" y="288"/>
            </Array>
            <mxPoint x="181" y="10" as="offset"/>
          </mxGeometry>
        </mxCell>
        <mxCell id="leQRQor99E0ZTcQCe0MW-4" value="" style="html=1;points=[];perimeter=orthogonalPerimeter;rounded=0;shadow=0;comic=0;labelBackgroundColor=none;strokeWidth=1;fontFamily=Verdana;fontSize=12;align=center;fillColor=#dae8fc;strokeColor=#6c8ebf;" parent="1" vertex="1">
          <mxGeometry x="150" y="260" width="10" height="70" as="geometry"/>
        </mxCell>
        <mxCell id="leQRQor99E0ZTcQCe0MW-11" value="" style="html=1;points=[];perimeter=orthogonalPerimeter;rounded=0;shadow=0;comic=0;labelBackgroundColor=none;strokeWidth=1;fontFamily=Verdana;fontSize=12;align=center;fillColor=#dae8fc;strokeColor=#6c8ebf;" parent="1" vertex="1">
          <mxGeometry x="150" y="360" width="10" height="70" as="geometry"/>
        </mxCell>
        <mxCell id="leQRQor99E0ZTcQCe0MW-12" value="6.通过hash算法获取服务器信息+服务器证书的数字摘要" style="html=1;verticalAlign=bottom;endArrow=block;labelBackgroundColor=none;fontFamily=Verdana;fontSize=12;elbow=vertical;edgeStyle=orthogonalEdgeStyle;curved=1;entryX=1;entryY=0.286;entryPerimeter=0;exitX=1.038;exitY=0.345;exitPerimeter=0;" parent="1" edge="1">
          <mxGeometry x="-0.2308" y="115" relative="1" as="geometry">
            <mxPoint x="150" y="340" as="sourcePoint"/>
            <mxPoint x="155" y="378" as="targetPoint"/>
            <Array as="points">
              <mxPoint x="205" y="340"/>
              <mxPoint x="205" y="378"/>
            </Array>
            <mxPoint as="offset"/>
          </mxGeometry>
        </mxCell>
        <mxCell id="leQRQor99E0ZTcQCe0MW-14" value="7.对比数字摘要,确保证书未被掉包" style="html=1;verticalAlign=bottom;endArrow=block;labelBackgroundColor=none;fontFamily=Verdana;fontSize=12;elbow=vertical;edgeStyle=orthogonalEdgeStyle;curved=1;entryX=1;entryY=0.286;entryPerimeter=0;exitX=1.038;exitY=0.345;exitPerimeter=0;" parent="1" edge="1">
          <mxGeometry x="-0.2308" y="-91" relative="1" as="geometry">
            <mxPoint x="150" y="406" as="sourcePoint"/>
            <mxPoint x="155" y="444" as="targetPoint"/>
            <Array as="points">
              <mxPoint x="205" y="406"/>
              <mxPoint x="205" y="444"/>
            </Array>
            <mxPoint x="181" y="10" as="offset"/>
          </mxGeometry>
        </mxCell>
        <mxCell id="leQRQor99E0ZTcQCe0MW-15" value="" style="html=1;points=[];perimeter=orthogonalPerimeter;rounded=0;shadow=0;comic=0;labelBackgroundColor=none;strokeWidth=1;fontFamily=Verdana;fontSize=12;align=center;fillColor=#dae8fc;strokeColor=#6c8ebf;" parent="1" vertex="1">
          <mxGeometry x="150" y="460" width="10" height="70" as="geometry"/>
        </mxCell>
        <mxCell id="leQRQor99E0ZTcQCe0MW-16" value="8.随机生成对称秘钥，用服务器公钥进行加密" style="html=1;verticalAlign=bottom;endArrow=block;labelBackgroundColor=none;fontFamily=Verdana;fontSize=12;elbow=vertical;edgeStyle=orthogonalEdgeStyle;curved=1;entryX=1;entryY=0.286;entryPerimeter=0;exitX=1.038;exitY=0.345;exitPerimeter=0;" parent="1" edge="1">
          <mxGeometry x="0.3007" y="-85" relative="1" as="geometry">
            <mxPoint x="150" y="453" as="sourcePoint"/>
            <mxPoint x="155" y="491" as="targetPoint"/>
            <Array as="points">
              <mxPoint x="205" y="453"/>
              <mxPoint x="205" y="491"/>
            </Array>
            <mxPoint x="85" y="77" as="offset"/>
          </mxGeometry>
        </mxCell>
        <mxCell id="leQRQor99E0ZTcQCe0MW-18" value="9.发送对称秘钥给服务器" style="text;html=1;strokeColor=none;fillColor=none;align=center;verticalAlign=middle;whiteSpace=wrap;rounded=0;" parent="1" vertex="1">
          <mxGeometry x="200" y="520" width="150" height="20" as="geometry"/>
        </mxCell>
        <mxCell id="leQRQor99E0ZTcQCe0MW-20" value="" style="endArrow=classic;html=1;exitX=0.933;exitY=0.239;exitDx=0;exitDy=0;exitPerimeter=0;" parent="1" edge="1">
          <mxGeometry width="50" height="50" relative="1" as="geometry">
            <mxPoint x="150" y="590" as="sourcePoint"/>
            <mxPoint x="435" y="590" as="targetPoint"/>
          </mxGeometry>
        </mxCell>
        <mxCell id="leQRQor99E0ZTcQCe0MW-24" value="10.使用对称秘钥进行通讯" style="text;html=1;strokeColor=none;fillColor=none;align=center;verticalAlign=middle;whiteSpace=wrap;rounded=0;" parent="1" vertex="1">
          <mxGeometry x="200" y="570" width="150" height="20" as="geometry"/>
        </mxCell>
        <mxCell id="leQRQor99E0ZTcQCe0MW-25" value="" style="endArrow=classic;html=1;" parent="1" edge="1">
          <mxGeometry width="50" height="50" relative="1" as="geometry">
            <mxPoint x="450" y="149.5" as="sourcePoint"/>
            <mxPoint x="670" y="149.5" as="targetPoint"/>
            <Array as="points"/>
          </mxGeometry>
        </mxCell>
        <mxCell id="leQRQor99E0ZTcQCe0MW-26" value="1.申请证书" style="text;html=1;strokeColor=none;fillColor=none;align=center;verticalAlign=middle;whiteSpace=wrap;rounded=0;" parent="1" vertex="1">
          <mxGeometry x="500" y="130" width="100" height="20" as="geometry"/>
        </mxCell>
        <mxCell id="HMq-z8qouAW9o6m76lG7-2" value="" style="endArrow=classic;html=1;" edge="1" parent="1" target="7baba1c4bc27f4b0-3">
          <mxGeometry width="50" height="50" relative="1" as="geometry">
            <mxPoint x="150" y="240" as="sourcePoint"/>
            <mxPoint x="370" y="240" as="targetPoint"/>
            <Array as="points"/>
          </mxGeometry>
        </mxCell>
        <mxCell id="HMq-z8qouAW9o6m76lG7-4" value="4.获取CA的公钥" style="text;html=1;strokeColor=none;fillColor=none;align=center;verticalAlign=middle;whiteSpace=wrap;rounded=0;" vertex="1" parent="1">
          <mxGeometry x="450" y="210" width="100" height="20" as="geometry"/>
        </mxCell>
      </root>
    </mxGraphModel>
  </diagram>
</mxfile>
